<svg width="24" height="24" viewBox="0 0 24 24" fill="none" xmlns="http://www.w3.org/2000/svg">
<path d="M4.125 20.25L3 21V22.125C3 22.3321 3.16789 22.5 3.375 22.5H4.875C5.08211 22.5 5.25 22.3321 5.25 22.125V21L4.125 20.25Z" fill="#8D65C5"/>
<path d="M19.875 20.25L18.75 21V22.125C18.75 22.3321 18.9179 22.5 19.125 22.5H20.625C20.8321 22.5 21 22.3321 21 22.125V21L19.875 20.25Z" fill="#8D65C5"/>
<path d="M3.75 13.5C3.75 13.3049 3.89904 13.1445 4.0895 13.1267C4.11306 13.1244 4.13676 13.1233 4.16018 13.12L6.75 12.75L9.375 13.125H12V15.75L8.25 16.125L4.125 15.75C3.91789 15.75 3.75 15.5821 3.75 15.375V13.5Z" fill="#E1D8EC"/>
<path d="M3.75 8.625C3.75 8.00368 3.24632 7.5 2.625 7.5C2.00368 7.5 1.5 8.00368 1.5 8.625V20.25C1.5 20.6642 1.83579 21 2.25 21H21.75C22.1642 21 22.5 20.6642 22.5 20.25V15.75H3.75V8.625Z" fill="#533566"/>
<path d="M5.0625 10.5C4.33763 10.5 3.75 11.0876 3.75 11.8125V12.75C3.75 12.9571 3.91789 13.125 4.125 13.125H9.375C9.58211 13.125 9.75 12.9571 9.75 12.75V12.5625C9.75 11.8532 9.20151 11.4379 8.48496 11.2613C8.45344 11.2535 8.4235 11.2457 8.39244 11.2362C8.05612 11.134 5.9271 10.4975 5.0625 10.5Z" fill="#3F5FFF"/>
<path d="M12.375 11.9972C11.7537 11.9972 11.25 12.5008 11.25 13.1222V16.125C11.25 16.3321 11.4179 16.5 11.625 16.5H22.125C22.3321 16.5 22.5 16.3321 22.5 16.125V14.6222C22.5 13.1724 21.3247 11.9972 19.875 11.9972H12.375Z" fill="#3F5FFF"/>
</svg>
