<svg width="18" height="23" viewBox="0 0 18 23" fill="none" xmlns="http://www.w3.org/2000/svg">
<path d="M0 21.7697C0 22.4492 0.576056 23 1.28666 23H3.85042C3.8557 23 3.85997 22.9959 3.85997 22.9909C3.85997 22.9856 3.86461 22.9814 3.8701 22.9818C4.07942 22.9939 4.29056 23 4.5033 23C9.83281 23 14.1532 19.1443 14.1532 14.388V7.31379C14.1532 7.14392 14.2972 7.00622 14.4749 7.00622L17.0331 7.00622C17.8952 7.00622 18.3246 6.00757 17.7119 5.42768L12.2587 0.266903C11.8827 -0.0889676 11.2771 -0.0889676 10.9011 0.266903L5.44793 5.42768C4.83519 6.00757 5.26464 7.00622 6.12676 7.00622H8.68494C8.86259 7.00622 9.0066 7.14392 9.0066 7.31379V14.388C9.0066 16.1121 7.33061 18.0788 4.5033 18.0788C4.28859 18.0788 4.08051 18.0675 3.87931 18.0458C3.86901 18.0447 3.85997 18.0524 3.85997 18.0623C3.85997 18.0714 3.85221 18.0788 3.84264 18.0788H1.28666C0.576056 18.0788 0 18.6297 0 19.3091V21.7697Z" fill="white"/>
</svg>
