<svg width="252" height="65" viewBox="0 0 252 65" fill="none" xmlns="http://www.w3.org/2000/svg">
<path d="M81.8018 24.575H87.3518L83.7518 41.45H78.2018L73.4018 64.25H51.6518L65.0768 0.799997H86.8268L81.8018 24.575ZM54.2018 0.799997L50.3768 64.25H29.6768L33.4268 25.325L20.6768 64.25H0.0517578L23.0018 0.799997H54.2018ZM169.926 0.799997L156.501 64.25H134.751L148.176 0.799997H169.926ZM87.6506 36.275L89.2256 28.775C93.8756 6.875 102.501 0.274999 119.751 0.274999C137.076 0.274999 142.851 6.875 138.201 28.775L136.626 36.275C131.976 58.175 123.351 64.775 106.026 64.775C88.7756 64.775 83.0006 58.175 87.6506 36.275ZM115.626 36.275L117.201 28.775C120.126 15.125 119.901 14.525 116.751 14.525C113.676 14.525 113.151 15.125 110.226 28.775L108.651 36.275C105.726 49.925 106.026 50.525 109.101 50.525C112.251 50.525 112.701 49.925 115.626 36.275ZM190.099 40.25L187.924 50.375H241.924L238.999 64.25H163.249L168.349 40.25H190.099ZM174.574 10.925L176.674 0.799997H212.749L207.874 23.975H190.399L189.724 27.05H210.199L208.024 37.25H168.949L173.899 13.85H191.299L191.974 10.925H174.574ZM209.674 23.975L212.674 9.725H216.424L218.299 0.799997H233.674L223.774 47.375H208.399L213.424 23.975H209.674ZM251.674 0.799997L241.774 47.375H226.024L235.924 0.799997H251.674Z" fill="white"/>
</svg>
