<svg width="24" height="24" viewBox="0 0 24 24" fill="none" xmlns="http://www.w3.org/2000/svg">
<path d="M4.51402 3.75C4.92056 3.75 5.25 3.41429 5.25 3C5.25 2.58571 4.92056 2.25 4.51402 2.25H3.75L3 3L3.75 3.75H4.51402Z" fill="#635994"/>
<path d="M13.5 15.0754C13.5 12.75 15.0538 11.2371 17.25 11.25C19.5 11.2633 21 12.8861 21 15V16.5036H19.5V15C19.5 13.3611 18.75 12.7501 17.25 12.75C15.6776 12.75 15 13.4355 15 15V17.7165C15 20.3576 13.063 22.5 10.5 22.5C7.937 22.5 6 20.3498 6 17.7165V14.2084C3.17195 13.8875 1.50047 11.7334 1.50621 8.625C1.50621 8.61861 1.50566 8.59309 1.5049 8.55715C1.50314 8.47472 1.50022 8.33744 1.5 8.25L2.25 7.5C2.25 7.5 3.00309 8.31414 3.00284 8.25C3.01457 11.25 4.50568 12.75 6.75283 12.75C8.99998 12.75 10.5004 11.25 10.5004 8.25C10.4998 8.35227 11.25 7.5 11.25 7.5L12 8.25C11.9997 8.37597 11.9994 8.60391 11.9994 8.625C11.9994 11.7354 10.3306 13.8903 7.5 14.2091V17.7165C7.5 19.4305 8.83669 21 10.5 21C12.1633 21 13.5 19.4305 13.5 17.7165V15.0754Z" fill="#635994"/>
<path d="M8.25 3C8.25 3.41429 8.57944 3.75 8.98598 3.75H9.75L10.5 3L9.75 2.25H8.98598C8.57944 2.25 8.25 2.58571 8.25 3Z" fill="#635994"/>
<path d="M3.44845 2.25H3.75V3.75H3.375C3.01202 3.75 3 3.9375 3 4.125V8.25L1.5 8.25V4.20855C1.5 3.12824 2.37371 2.25 3.44845 2.25Z" fill="#00A6ED"/>
<path d="M20.25 18.75C21.4926 18.75 22.5 17.7426 22.5 16.5C22.5 15.2574 21.4926 14.25 20.25 14.25C19.0074 14.25 18 15.2574 18 16.5C18 17.7426 19.0074 18.75 20.25 18.75Z" fill="#00A6ED"/>
<path d="M9.75 2.25H10.0515C11.1263 2.25 12 3.12824 12 4.20855V8.25L10.5 8.25V4.125C10.5 3.9375 10.488 3.75 10.125 3.75H9.75V2.25Z" fill="#00A6ED"/>
<path d="M20.25 17.625C20.8713 17.625 21.375 17.1213 21.375 16.5C21.375 15.8787 20.8713 15.375 20.25 15.375C19.6287 15.375 19.125 15.8787 19.125 16.5C19.125 17.1213 19.6287 17.625 20.25 17.625Z" fill="#3F5FFF"/>
</svg>
